<svg width="105" height="29" viewBox="0 0 105 29" fill="none" xmlns="http://www.w3.org/2000/svg">
<path d="M14.5103 0.580009C11.7832 0.580009 9.199 1.37751 7.00859 2.86811C7.00859 2.86811 6.83942 2.97831 6.57401 3.17841C6.54776 3.19871 6.5215 3.21611 6.49525 3.23641C6.39317 3.31181 6.28234 3.39881 6.16275 3.49451C6.14234 3.51191 6.11901 3.52931 6.09567 3.54671C6.09859 3.54671 6.09859 3.54381 6.1015 3.54381C5.49192 4.03681 4.68692 4.76181 4.04234 5.61731H4.04526C2.1815 7.95471 1.1665 10.8315 1.1665 13.8475C1.1665 17.2608 2.46734 20.503 4.82984 22.9796C4.88234 23.0115 4.93192 23.0405 4.98442 23.0695C5.034 23.0985 5.08359 23.1304 5.13317 23.1565C5.18859 23.1884 5.244 23.2174 5.30234 23.2464C5.35192 23.2754 5.40442 23.3015 5.45692 23.3276C5.51234 23.3566 5.57067 23.3827 5.62609 23.4117C5.67859 23.4378 5.73109 23.4639 5.78359 23.49C5.83901 23.5161 5.89734 23.5422 5.95567 23.5683C6.00817 23.5915 6.06067 23.6176 6.11609 23.6408C6.17442 23.664 6.23275 23.6872 6.29109 23.7104C6.3465 23.7336 6.399 23.7568 6.45442 23.7771C6.51275 23.8003 6.57109 23.8206 6.62942 23.8438C6.68484 23.8641 6.73734 23.8873 6.79567 23.9047C6.854 23.925 6.91525 23.9453 6.97359 23.9656C7.029 23.9859 7.08442 24.0033 7.13984 24.0207C7.20109 24.041 7.25942 24.0555 7.32067 24.0729C7.379 24.0903 7.43442 24.1077 7.48984 24.1222C7.55109 24.1396 7.61234 24.1541 7.67359 24.1715C7.729 24.186 7.78442 24.2005 7.84275 24.215C7.904 24.2295 7.96817 24.244 8.02942 24.2585C8.08484 24.2701 8.14317 24.2846 8.19859 24.2962C8.25984 24.3107 8.32401 24.3194 8.38817 24.331C8.44359 24.3426 8.499 24.3542 8.55734 24.3629C8.6215 24.3745 8.68859 24.3832 8.75276 24.3919C8.80817 24.4006 8.86359 24.4093 8.91901 24.418C8.98609 24.4267 9.05317 24.4354 9.12317 24.4412C9.17859 24.447 9.23109 24.4557 9.28359 24.4615C9.35359 24.4673 9.42651 24.4731 9.49942 24.4789C9.54901 24.4818 9.6015 24.4876 9.65109 24.4905C9.73275 24.4963 9.81734 24.4992 9.89901 24.5021C9.93692 24.505 9.97775 24.505 10.0157 24.5079C10.1382 24.5108 10.2607 24.5137 10.3832 24.5137C11.7803 24.5137 13.1394 24.2498 14.4257 23.7307C15.849 23.1536 17.1236 22.2865 18.1736 21.1816C18.5236 20.8133 18.8473 20.4218 19.1448 20.0042C19.2178 19.9027 19.2878 19.8012 19.3548 19.6968C19.3753 19.6678 19.3957 19.6359 19.4161 19.604C19.4657 19.5286 19.5153 19.4503 19.5619 19.372C19.5794 19.3401 19.5998 19.3111 19.6203 19.2792C19.6815 19.1748 19.7428 19.0704 19.804 18.9631C19.8098 18.9515 19.8157 18.937 19.8244 18.9254C19.8769 18.8297 19.9294 18.7311 19.9761 18.6354C19.9907 18.6035 20.0082 18.5687 20.0257 18.5368C20.0694 18.4498 20.1103 18.3657 20.1511 18.2787C20.1628 18.2526 20.1773 18.2265 20.1861 18.1975C20.2357 18.0902 20.2823 17.9829 20.3261 17.8756C20.0694 18.241 19.7719 18.5861 19.4423 18.9051C18.1153 20.1811 16.3653 20.8829 14.519 20.8829C12.6728 20.8829 10.9228 20.1811 9.59567 18.9051C8.26859 17.632 7.50442 15.9239 7.44026 14.0998C7.43734 14.0418 7.44026 13.9838 7.44026 13.9287V13.8504C7.44026 13.7663 7.44025 13.6851 7.44317 13.601H7.44026C7.45192 13.108 7.49567 12.6179 7.5715 12.1365C7.5715 12.1336 7.57151 12.1307 7.57442 12.1278C7.59192 12.0031 7.61526 11.8813 7.63859 11.7595C7.64442 11.7334 7.64734 11.7102 7.65317 11.6841C7.67067 11.5884 7.69109 11.4927 7.71442 11.3999C7.72609 11.3506 7.73484 11.3013 7.7465 11.252C7.76109 11.194 7.77567 11.136 7.79025 11.078C7.81067 10.9939 7.83401 10.9127 7.85734 10.8286C7.87192 10.7851 7.88359 10.7387 7.89525 10.6952C7.92442 10.6024 7.95359 10.5096 7.98276 10.4168C7.99442 10.382 8.00609 10.3472 8.01775 10.3124C8.04984 10.2138 8.08775 10.1123 8.12275 10.0137C8.1315 9.98471 8.14317 9.95861 8.15484 9.92961C8.19275 9.82521 8.2365 9.72081 8.27734 9.61931C8.28609 9.59611 8.29484 9.57581 8.3065 9.55261C8.35025 9.44531 8.39984 9.33801 8.4465 9.23361C8.45525 9.21621 8.46401 9.19881 8.46984 9.18141C8.52234 9.07121 8.57192 8.96391 8.62734 8.85661L8.64776 8.81601C8.70317 8.70581 8.76151 8.59561 8.82276 8.48831C8.82859 8.47671 8.83442 8.46511 8.84317 8.45351C8.90442 8.34331 8.96859 8.23311 9.03276 8.12581C9.03859 8.11711 9.0415 8.10841 9.05025 8.09971C9.11734 7.98951 9.18734 7.87931 9.26026 7.76911C9.26317 7.76331 9.26609 7.75751 9.269 7.75461C9.34192 7.64151 9.41775 7.53131 9.4965 7.42111C9.56942 7.31671 9.64525 7.21521 9.724 7.11371C9.75025 7.07891 9.7765 7.04701 9.79984 7.01511C9.85234 6.94841 9.90484 6.87881 9.96026 6.81501C9.99234 6.77731 10.0244 6.73961 10.0565 6.69901C10.1061 6.64101 10.1557 6.58011 10.2053 6.52211C10.2403 6.48151 10.2753 6.44381 10.3132 6.40611C10.3628 6.35101 10.4123 6.29591 10.4648 6.24081C10.5028 6.20021 10.5378 6.16251 10.5757 6.12481C10.6282 6.07261 10.6778 6.02041 10.7303 5.96821C10.7682 5.93051 10.8061 5.89281 10.8469 5.85511C10.8994 5.80291 10.9548 5.75361 11.0073 5.70431C11.0453 5.66661 11.0861 5.63181 11.124 5.59701C11.1794 5.54771 11.2378 5.49841 11.2932 5.44911C11.3311 5.41431 11.3719 5.38241 11.4098 5.34761C11.4711 5.29831 11.5323 5.24611 11.5936 5.19681C11.6286 5.16781 11.6665 5.13591 11.7044 5.10691C11.7744 5.05181 11.8473 4.99671 11.9203 4.94161C11.9494 4.92131 11.9786 4.89811 12.0078 4.87781C12.1098 4.80241 12.2148 4.72991 12.3169 4.65741C12.3315 4.64871 12.3461 4.64001 12.3578 4.63131C12.4482 4.57041 12.5415 4.50951 12.6348 4.45151C12.6698 4.42831 12.7078 4.40511 12.7457 4.38481C12.8157 4.34131 12.8857 4.29781 12.9586 4.25431C13.0023 4.22821 13.0461 4.20501 13.0898 4.17891C13.1073 4.17021 13.1248 4.15861 13.1423 4.14991C13.4661 3.97011 14.1923 3.59601 15.079 3.29151C15.0848 3.28861 15.0936 3.28571 15.0994 3.28571C15.1403 3.27121 15.1811 3.25961 15.2219 3.24511C15.2657 3.23061 15.3094 3.21611 15.3532 3.20451C15.394 3.19291 15.4348 3.17841 15.4757 3.16681C15.5223 3.15521 15.5661 3.14071 15.6128 3.12911C15.6536 3.11751 15.6915 3.10591 15.7323 3.09721C15.7761 3.08561 15.8228 3.07401 15.8694 3.06241C15.9103 3.05081 15.9482 3.04211 15.989 3.03051C16.0328 3.01891 16.0765 3.01021 16.1203 2.99861C16.1611 2.98991 16.2048 2.97831 16.2457 2.96961C16.2923 2.95801 16.339 2.94931 16.3857 2.94061C16.4265 2.93191 16.4673 2.92321 16.5053 2.91741C16.5519 2.90871 16.6015 2.90001 16.6482 2.89131C16.689 2.88261 16.7269 2.87681 16.7678 2.87101C16.8144 2.86521 16.864 2.85651 16.9136 2.84781C16.9515 2.84201 16.9923 2.83621 17.0303 2.83041C17.0798 2.82461 17.1294 2.81591 17.179 2.81011C17.2169 2.80431 17.2578 2.79851 17.2957 2.79561C17.3453 2.78981 17.3978 2.78401 17.4473 2.78111C17.4853 2.77531 17.5232 2.77241 17.5611 2.76951C17.6136 2.76371 17.6661 2.76081 17.7157 2.75791C17.7536 2.75501 17.7915 2.75211 17.8294 2.74921C17.8848 2.74631 17.9373 2.74341 17.9928 2.73761C18.0278 2.73471 18.0628 2.73471 18.0978 2.73181C18.159 2.72891 18.2173 2.72601 18.2786 2.72601C18.3078 2.72601 18.3369 2.72311 18.3661 2.72311C18.4565 2.72021 18.5469 2.72021 18.6373 2.72021C18.7511 2.72021 18.8678 2.72311 18.9815 2.72601C19.0136 2.72601 19.0457 2.72891 19.0778 2.72891C19.1682 2.73181 19.2586 2.73761 19.349 2.74341C19.3753 2.74631 19.4015 2.74631 19.4278 2.74921C19.5415 2.75791 19.6553 2.76661 19.769 2.77821C19.7923 2.78111 19.8186 2.78401 19.8419 2.78691C19.9353 2.79561 20.0257 2.80721 20.1161 2.81881C20.1482 2.82171 20.1803 2.82751 20.2123 2.83041C20.3203 2.84491 20.4253 2.86231 20.5303 2.87971C20.5361 2.88261 20.5419 2.88261 20.5507 2.88261C20.6644 2.90291 20.7753 2.92321 20.8861 2.94641C20.9153 2.95221 20.9473 2.95801 20.9765 2.96671C21.064 2.98701 21.1515 3.00731 21.239 3.02471C21.2653 3.03341 21.2915 3.03631 21.3207 3.04501C21.4315 3.07111 21.5394 3.10011 21.6503 3.12911C21.6707 3.13491 21.6911 3.14071 21.7115 3.14651C21.8019 3.17261 21.8923 3.19871 21.9798 3.22771C22.0119 3.23641 22.0411 3.24801 22.0732 3.25671C22.1694 3.28571 22.2657 3.32051 22.359 3.35241C22.3707 3.35821 22.3853 3.36111 22.3969 3.36401C22.5019 3.40171 22.6069 3.44231 22.7119 3.48291C22.7411 3.49451 22.7703 3.50611 22.7994 3.51771C22.8403 3.53221 22.8782 3.54671 22.9161 3.56411C20.5536 1.62111 17.6223 0.580009 14.5103 0.580009Z" fill="white"/>
<path d="M14.9069 27.4108C17.634 27.4108 20.2181 26.6133 22.4085 25.1227C22.4085 25.1227 22.5777 25.0125 22.8431 24.8124C22.8694 24.7921 22.8956 24.7718 22.9219 24.7544C23.024 24.679 23.1348 24.592 23.2544 24.4963C23.2748 24.4789 23.2981 24.4615 23.3215 24.4441C23.3186 24.4441 23.3185 24.447 23.3156 24.447C23.9252 23.954 24.7302 23.229 25.3748 22.3764H25.3719C27.2356 20.039 28.2506 17.1622 28.2506 14.1462C28.2506 10.7329 26.9498 7.49071 24.5873 5.01411C24.5348 4.98221 24.4852 4.95321 24.4327 4.92421C24.3831 4.89521 24.3335 4.86621 24.281 4.83721C24.2256 4.80531 24.1673 4.77631 24.1119 4.74731C24.0623 4.71831 24.0098 4.69221 23.9573 4.66611C23.9019 4.63711 23.8436 4.61101 23.7881 4.58201C23.7356 4.55591 23.6831 4.52981 23.6306 4.50371C23.5723 4.47761 23.5169 4.45151 23.4586 4.42541C23.4061 4.40221 23.3536 4.37611 23.2981 4.35291C23.2398 4.32971 23.1815 4.30651 23.1231 4.28331C23.0677 4.26011 23.0152 4.23691 22.9598 4.21661C22.9015 4.19341 22.8431 4.17311 22.7848 4.14991C22.7294 4.12961 22.6769 4.10641 22.6185 4.08901C22.5602 4.06871 22.499 4.04841 22.4406 4.02811C22.3852 4.00781 22.3298 3.99041 22.2744 3.97301C22.2161 3.95271 22.1548 3.93821 22.0935 3.92081C22.0352 3.90341 21.9798 3.88601 21.9244 3.87151C21.8631 3.85411 21.8019 3.83961 21.7406 3.82511C21.6852 3.81061 21.6269 3.79611 21.5715 3.78161C21.5102 3.76711 21.4461 3.75261 21.3848 3.73811C21.3294 3.72651 21.2711 3.71201 21.2156 3.70041C21.1544 3.68591 21.0902 3.67721 21.0261 3.66561C20.9706 3.65401 20.9152 3.64241 20.8569 3.63371C20.7927 3.62211 20.7256 3.61341 20.6615 3.60471C20.6061 3.59601 20.5506 3.58731 20.4952 3.57861C20.4281 3.56991 20.3611 3.56121 20.294 3.55541C20.2386 3.54961 20.1861 3.54091 20.1336 3.53511C20.0636 3.52931 19.9906 3.52351 19.9206 3.51771C19.8711 3.51481 19.8186 3.50901 19.769 3.50611C19.6873 3.50031 19.6027 3.49741 19.5211 3.49451C19.4802 3.49161 19.4423 3.48871 19.4044 3.48871C19.2819 3.48581 19.1594 3.48291 19.0369 3.48291C17.6398 3.48291 16.2806 3.74681 14.9973 4.26591C13.574 4.84301 12.2994 5.71011 11.2494 6.81501C10.8994 7.18331 10.5756 7.57481 10.2781 7.99241C10.2052 8.09391 10.1352 8.19541 10.0681 8.29981C10.0477 8.32881 10.0273 8.36071 10.0069 8.39261C9.9573 8.46801 9.90772 8.54631 9.86105 8.62461C9.84355 8.65651 9.82314 8.68551 9.80272 8.71741C9.74147 8.82181 9.68022 8.92621 9.62189 9.03351C9.61605 9.04511 9.61022 9.05961 9.60147 9.07121C9.54897 9.16691 9.49939 9.26551 9.4498 9.36121C9.43522 9.39311 9.41772 9.42791 9.40022 9.45981C9.35647 9.54681 9.31564 9.63091 9.27772 9.71791C9.26605 9.74401 9.25147 9.77011 9.24272 9.79911C9.19314 9.90641 9.14647 10.0137 9.10272 10.121C9.35939 9.75561 9.65689 9.41051 9.98647 9.09151C11.3136 7.81551 13.0636 7.11371 14.9069 7.11371C16.7531 7.11371 18.5031 7.81551 19.8302 9.09151C21.1544 10.3646 21.9215 12.0727 21.9827 13.8968C21.9856 13.9548 21.9827 14.0128 21.9827 14.0679V14.1462C21.9827 14.2303 21.9827 14.3115 21.9798 14.3956H21.9827C21.9711 14.8886 21.9273 15.3787 21.8515 15.8601C21.8515 15.863 21.8515 15.8659 21.8486 15.8688C21.8281 15.9935 21.8077 16.1153 21.7844 16.2371C21.7785 16.2632 21.7756 16.2864 21.7698 16.3125C21.7523 16.4082 21.7319 16.5039 21.7086 16.5967C21.6969 16.646 21.6881 16.6953 21.6765 16.7446C21.6619 16.8026 21.6473 16.8606 21.6327 16.9186C21.6123 17.0027 21.589 17.0839 21.5656 17.168C21.5511 17.2115 21.5394 17.2579 21.5277 17.3014C21.4986 17.3942 21.4694 17.487 21.4402 17.5798C21.4286 17.6146 21.4169 17.6494 21.4052 17.6842C21.3731 17.7828 21.3381 17.8843 21.3002 17.9829C21.2915 18.0119 21.2798 18.038 21.2681 18.067C21.2302 18.1714 21.1865 18.2758 21.1456 18.3773C21.1369 18.4005 21.1281 18.4208 21.1165 18.444C21.0727 18.5513 21.0231 18.6586 20.9765 18.763C20.9677 18.7804 20.959 18.7978 20.9531 18.8152C20.9006 18.9254 20.8481 19.0327 20.7956 19.14L20.7752 19.1806C20.7198 19.2908 20.6615 19.401 20.6002 19.5083C20.5944 19.5199 20.5886 19.5315 20.5798 19.5431C20.5186 19.6533 20.4544 19.7635 20.3902 19.8708C20.3844 19.8795 20.3815 19.8882 20.3756 19.8969C20.3085 20.0071 20.2385 20.1173 20.1656 20.2275C20.1627 20.2333 20.1598 20.2391 20.1569 20.242C20.084 20.3551 20.0081 20.4653 19.9294 20.5755C19.8565 20.6799 19.7806 20.7814 19.7019 20.8829C19.6786 20.9177 19.6523 20.9496 19.6261 20.9815C19.5736 21.0482 19.5211 21.1178 19.4656 21.1816C19.4336 21.2222 19.4015 21.257 19.3694 21.2976C19.3198 21.3556 19.2673 21.4165 19.2206 21.4745C19.1856 21.5151 19.1506 21.5528 19.1156 21.5905C19.0661 21.6456 19.0165 21.7007 18.964 21.7558C18.9261 21.7964 18.891 21.8341 18.8531 21.8718C18.8006 21.924 18.7511 21.9762 18.6986 22.0284C18.6606 22.0661 18.6227 22.1038 18.5819 22.1415C18.5294 22.1937 18.474 22.243 18.4215 22.2923C18.3806 22.33 18.3427 22.3648 18.3048 22.3996C18.2465 22.4489 18.1911 22.4982 18.1327 22.5475C18.0948 22.5823 18.054 22.6142 18.0161 22.649C17.9548 22.6983 17.8936 22.7505 17.8323 22.7998C17.7973 22.8288 17.7594 22.8607 17.7215 22.8897C17.6515 22.9448 17.5786 22.9999 17.5056 23.055C17.4765 23.0753 17.4473 23.0985 17.4181 23.1188C17.3161 23.1942 17.2111 23.2667 17.109 23.3392C17.0944 23.3479 17.0798 23.3566 17.0681 23.3653C16.9777 23.4262 16.8844 23.4871 16.7911 23.5451C16.7561 23.5683 16.7181 23.5915 16.6802 23.6118C16.6073 23.6553 16.5402 23.6988 16.4673 23.7423C16.4236 23.7684 16.3798 23.7916 16.3361 23.8177C16.3186 23.8264 16.3011 23.838 16.2836 23.8467C15.9598 24.0265 15.2336 24.4006 14.3469 24.7051C14.3411 24.708 14.3323 24.7109 14.3265 24.7109C14.2856 24.7254 14.2448 24.737 14.204 24.7515C14.1602 24.766 14.1165 24.7805 14.0727 24.7921C14.0319 24.8037 13.9911 24.8182 13.9531 24.8298C13.9065 24.8414 13.8627 24.8559 13.8161 24.8675C13.7752 24.8791 13.7373 24.8907 13.6965 24.8994C13.6527 24.911 13.6061 24.9226 13.5594 24.9342C13.5186 24.9458 13.4777 24.9545 13.4398 24.9661C13.3961 24.9777 13.3523 24.9864 13.3086 24.998C13.2648 25.0067 13.224 25.0183 13.1831 25.027C13.1365 25.0386 13.0898 25.0473 13.0431 25.056C13.0023 25.0647 12.9615 25.0734 12.9236 25.0792C12.8769 25.0879 12.8273 25.0966 12.7806 25.1053C12.7398 25.114 12.7019 25.1198 12.6611 25.1256C12.6144 25.1314 12.5648 25.1401 12.5152 25.1488C12.4773 25.1546 12.4365 25.1604 12.3986 25.1662C12.349 25.172 12.2994 25.1778 12.2498 25.1865C12.2119 25.1923 12.1711 25.1981 12.1331 25.201C12.0836 25.2068 12.034 25.2126 11.9844 25.2155C11.9465 25.2213 11.9086 25.2242 11.8677 25.2271C11.8152 25.2329 11.7627 25.2358 11.7131 25.2387C11.6752 25.2416 11.6373 25.2445 11.6023 25.2474C11.5469 25.2532 11.4944 25.2561 11.439 25.259C11.404 25.2619 11.369 25.2648 11.334 25.2648C11.2727 25.2677 11.2144 25.2706 11.1531 25.2706C11.124 25.2706 11.0948 25.2735 11.0656 25.2735C10.9752 25.2764 10.8848 25.2764 10.7944 25.2764C10.6806 25.2764 10.564 25.2764 10.4502 25.2706C10.4181 25.2706 10.3861 25.2677 10.354 25.2677C10.2636 25.2648 10.1731 25.259 10.0827 25.2532C10.0565 25.2503 10.0302 25.2503 10.004 25.2474C9.89022 25.2387 9.77647 25.23 9.66272 25.2184C9.63939 25.2155 9.61314 25.2126 9.5898 25.2097C9.49647 25.201 9.40606 25.1894 9.31564 25.1778C9.28356 25.1749 9.25147 25.1691 9.21939 25.1662C9.11147 25.1517 9.00647 25.1343 8.90147 25.1169C8.89564 25.114 8.8898 25.114 8.88105 25.114C8.77022 25.0937 8.65647 25.0734 8.54564 25.0502C8.51647 25.0444 8.48439 25.0357 8.45522 25.0299C8.36772 25.0096 8.28022 24.9922 8.19272 24.9719C8.16647 24.9661 8.14022 24.9603 8.11397 24.9516C8.00314 24.9255 7.89522 24.8965 7.78439 24.8675C7.76397 24.8617 7.74355 24.8559 7.72314 24.8501C7.63272 24.824 7.5423 24.7979 7.4548 24.7689C7.42272 24.7602 7.39355 24.7515 7.36147 24.7399C7.26522 24.708 7.16897 24.6761 7.07564 24.6442C7.06397 24.6384 7.04939 24.6355 7.03772 24.6326C6.93272 24.5949 6.82772 24.5543 6.72272 24.5137C6.69355 24.5021 6.66439 24.4905 6.63522 24.4789C6.59439 24.4644 6.55647 24.4499 6.51855 24.4325C8.86064 26.3697 11.7919 27.4108 14.9069 27.4108Z" fill="white"/>
<path d="M42.8604 10.6488C42.8604 12.5802 41.4954 13.601 39.2292 13.601H34.6704V3.3582H39.1592C41.2271 3.3582 42.4929 4.2659 42.4929 6.1828C42.4929 7.2036 41.79 7.9866 41.0579 8.2244C41.8629 8.41 42.8604 9.222 42.8604 10.6488ZM36.8958 5.22V7.598H38.7683C39.7104 7.598 40.2733 7.1514 40.2733 6.409C40.2733 5.4868 39.6258 5.22 38.9083 5.22H36.8958V5.22ZM40.6117 10.5212C40.6117 9.7382 40.0779 9.2481 39.1212 9.2481H36.8987V11.7653H39.1504C40.0196 11.7653 40.6117 11.4173 40.6117 10.5212Z" fill="white"/>
<path d="M48.9243 12.6904C48.446 13.3632 47.5593 13.7402 46.4772 13.7402C44.7185 13.7402 43.4526 12.8876 43.4526 11.2636C43.4526 9.57001 45.1122 8.71741 46.7164 8.71741C47.4339 8.71741 48.1368 8.81601 48.8689 9.02481C48.898 7.82131 48.236 7.30511 47.081 7.30511C46.0106 7.30511 44.8847 7.64151 44.3947 7.87931L43.8726 6.32781C44.6047 5.97691 45.8997 5.51581 47.3901 5.51581C49.8955 5.51581 51.0068 6.73381 51.0068 9.15241V13.601H48.9389L48.9243 12.6904ZM48.8689 10.8141V10.2834C48.3614 10.1007 47.8276 10.0166 47.2647 10.0166C46.3489 10.0166 45.5906 10.3936 45.5906 11.107C45.5906 11.8349 46.2672 12.2119 47.081 12.2119C48.0231 12.2148 48.8689 11.7537 48.8689 10.8141Z" fill="white"/>
<path d="M60.0043 8.91171V13.5981H57.8664V9.23361C57.8664 8.07361 57.1781 7.42981 56.1631 7.42981C55.0664 7.42981 54.2497 8.18381 54.2497 9.24811V13.5981H52.1118V5.66661H54.2497V6.85561C54.8972 6.19731 55.8247 5.51291 57.0497 5.51291C58.7939 5.51291 60.0043 6.78601 60.0043 8.91171Z" fill="white"/>
<path d="M64.9743 5.51291C66.7885 5.51291 68.1127 6.50761 68.6464 7.75171L66.8177 8.52021C66.4939 7.93151 65.931 7.42981 64.9889 7.42981C63.7639 7.42981 62.8918 8.38101 62.8918 9.65411C62.8918 10.9272 63.7639 11.8349 64.9889 11.8349C65.9456 11.8349 66.5377 11.3448 66.8468 10.7851L68.6756 11.5391C68.1273 12.8412 66.8468 13.7489 64.9889 13.7489C62.6118 13.7489 60.7539 12.0408 60.7539 9.65121C60.751 7.34571 62.6235 5.51291 64.9743 5.51291Z" fill="white"/>
<path d="M68.9409 9.62511C68.9409 7.36021 70.7142 5.51291 73.2051 5.51291C75.6959 5.51291 77.4692 7.36021 77.4692 9.62511C77.4692 11.8929 75.6959 13.7518 73.2051 13.7518C70.7113 13.7518 68.9409 11.8929 68.9409 9.62511ZM71.0934 9.62511C71.0934 10.8692 71.8955 11.8494 73.2051 11.8494C74.5263 11.8494 75.3138 10.8692 75.3138 9.62511C75.3138 8.36651 74.5263 7.41531 73.2051 7.41531C71.8955 7.41531 71.0934 8.36651 71.0934 9.62511Z" fill="white"/>
<path d="M44.5167 20.9496C44.263 23.4668 42.265 25.4127 39.1996 25.4127C36.035 25.4127 33.7134 23.0898 33.7134 20.126C33.7134 17.1448 36.035 14.8248 39.1996 14.8248C41.6059 14.8248 43.1255 16.0428 43.9975 17.5102L41.9996 18.4324C41.4921 17.6349 40.6346 16.8519 39.1996 16.8519C37.3563 16.8519 35.9359 18.2642 35.9359 20.126C35.9359 21.9733 37.3855 23.3711 39.1996 23.3711C40.7338 23.3711 41.915 22.5446 42.1396 21.2019H38.5521V19.4242H44.5605C44.5721 19.7345 44.6013 20.2362 44.5167 20.9496Z" fill="white"/>
<path d="M53.4477 17.2985V25.23H51.3098V24.041C50.6623 24.6993 49.7348 25.3837 48.5098 25.3837C46.7656 25.3837 45.5552 24.1106 45.5552 21.9849V17.2985H47.6931V21.663C47.6931 22.823 48.3814 23.4668 49.3964 23.4668C50.4931 23.4668 51.3098 22.7128 51.3098 21.6485V17.2985H53.4477Z" fill="white"/>
<path d="M59.7827 24.3223C59.3044 24.9951 58.4177 25.3721 57.3356 25.3721C55.5769 25.3721 54.311 24.5195 54.311 22.8955C54.311 21.2019 55.9706 20.3493 57.5748 20.3493C58.2923 20.3493 58.9952 20.4479 59.7273 20.6567C59.7565 19.4532 59.0944 18.937 57.9394 18.937C56.869 18.937 55.7431 19.2734 55.2531 19.5112L54.734 17.9597C55.466 17.6088 56.761 17.1477 58.2515 17.1477C60.7569 17.1477 61.8681 18.3657 61.8681 20.7843V25.2329H59.8002L59.7827 24.3223ZM59.7273 22.4489V21.9182C59.2198 21.7355 58.686 21.6514 58.1231 21.6514C57.2073 21.6514 56.449 22.0284 56.449 22.7418C56.449 23.4697 57.1256 23.8467 57.9394 23.8467C58.8815 23.8467 59.7273 23.3856 59.7273 22.4489Z" fill="white"/>
<path d="M71.0646 17.2985L67.4771 25.8187C66.7596 27.5268 65.8875 28.2953 64.2279 28.2953C63.3413 28.2953 62.7229 28.1271 61.9062 27.7356L62.5829 26.042C62.9912 26.2247 63.4258 26.419 64.0179 26.419C64.7908 26.419 65.1846 26.042 65.5667 25.1459L65.5813 25.1053L62.0783 17.2985H64.4992L66.6225 22.5446L68.7458 17.2985H71.0646Z" fill="white"/>
<path d="M76.6264 24.3223C76.1481 24.9951 75.2614 25.3721 74.1794 25.3721C72.4206 25.3721 71.1548 24.5195 71.1548 22.8955C71.1548 21.2019 72.8144 20.3493 74.4185 20.3493C75.136 20.3493 75.8389 20.4479 76.571 20.6567C76.6002 19.4532 75.9381 18.937 74.7831 18.937C73.7127 18.937 72.5869 19.2734 72.0969 19.5112L71.5748 17.9597C72.3069 17.6088 73.6019 17.1477 75.0923 17.1477C77.5977 17.1477 78.7089 18.3657 78.7089 20.7843V25.2329H76.641L76.6264 24.3223ZM76.571 22.4489V21.9182C76.0635 21.7355 75.5298 21.6514 74.9669 21.6514C74.051 21.6514 73.2927 22.0284 73.2927 22.7418C73.2927 23.4697 73.9694 23.8467 74.7831 23.8467C75.7252 23.8467 76.571 23.3856 76.571 22.4489Z" fill="white"/>
<path d="M87.9227 17.2985V28.1532H85.7994V24.2498C85.2656 24.9226 84.4344 25.3837 83.1394 25.3837C81.0569 25.3837 79.5811 23.7481 79.5811 21.2715C79.5811 18.7949 81.0598 17.1448 83.1394 17.1448C84.4344 17.1448 85.2627 17.6059 85.7994 18.2787V17.2985H87.9227V17.2985ZM85.8256 21.257C85.8256 20.0274 85.1227 19.0762 83.8277 19.0762C82.5327 19.0762 81.7452 20.0274 81.7452 21.257C81.7452 22.5156 82.5327 23.4523 83.8277 23.4523C85.1227 23.4552 85.8256 22.5185 85.8256 21.257Z" fill="white"/>
<path d="M96.9789 17.2985V25.23H94.841V24.041C94.1935 24.6993 93.266 25.3837 92.041 25.3837C90.2968 25.3837 89.0864 24.1106 89.0864 21.9849V17.2985H91.2243V21.663C91.2243 22.823 91.9127 23.4668 92.9277 23.4668C94.0243 23.4668 94.841 22.7128 94.841 21.6485V17.2985H96.9789Z" fill="white"/>
<path d="M99.4696 16.4749C98.7812 16.4749 98.2329 15.9442 98.2329 15.3004C98.2329 14.6856 98.7958 14.152 99.4696 14.152C100.132 14.152 100.68 14.6566 100.68 15.3004C100.68 15.9442 100.146 16.4749 99.4696 16.4749ZM98.3875 17.2985H100.525V25.23H98.3875V17.2985Z" fill="white"/>
<path d="M101.935 14.6943L104.072 14.3753V25.2329H101.935V14.6943Z" fill="white"/>
</svg>
